<svg height="590" width="720" xmlns="http://www.w3.org/2000/svg">
<rect height="590" fill="#555" width="720"></rect>
<text fill="#7f7" font-family="Courier New" font-size="12" xml:space="preserve">
<tspan x="10" y="26">10 megabytes installed</tspan>
<tspan x="10" y="42"></tspan>
<tspan x="10" y="58">node_modules</tspan>
<tspan x="10" y="74">└─┬ absurd@0.3.8 </tspan>
<tspan x="10" y="90">  ├── colors@0.6.2 </tspan>
<tspan x="10" y="106">  ├─┬ gaze@1.1.0 </tspan>
<tspan x="10" y="122">  │ └─┬ globule@1.1.0 </tspan>
<tspan x="10" y="138">  │   ├─┬ glob@7.1.1 </tspan>
<tspan x="10" y="154">  │   │ └── fs.realpath@1.0.0 </tspan>
<tspan x="10" y="170">  │   └── lodash@4.16.6 </tspan>
<tspan x="10" y="186">  ├─┬ glob@5.0.15 </tspan>
<tspan x="10" y="202">  │ ├─┬ inflight@1.0.6 </tspan>
<tspan x="10" y="218">  │ │ └── wrappy@1.0.2 </tspan>
<tspan x="10" y="234">  │ ├── inherits@2.0.3 </tspan>
<tspan x="10" y="250">  │ ├─┬ minimatch@3.0.3 </tspan>
<tspan x="10" y="266">  │ │ └─┬ brace-expansion@1.1.7 </tspan>
<tspan x="10" y="282">  │ │   ├── balanced-match@0.4.2 </tspan>
<tspan x="10" y="298">  │ │   └── concat-map@0.0.1 </tspan>
<tspan x="10" y="314">  │ ├── once@1.4.0 </tspan>
<tspan x="10" y="330">  │ └── path-is-absolute@1.0.1 </tspan>
<tspan x="10" y="346">  ├─┬ js-beautify@1.4.2 </tspan>
<tspan x="10" y="362">  │ ├─┬ config-chain@1.1.11 </tspan>
<tspan x="10" y="378">  │ │ ├── ini@1.3.4 </tspan>
<tspan x="10" y="394">  │ │ └── proto-list@1.2.4 </tspan>
<tspan x="10" y="410">  │ ├── mkdirp@0.3.5 </tspan>
<tspan x="10" y="426">  │ └─┬ nopt@2.1.2 </tspan>
<tspan x="10" y="442">  │   └── abbrev@1.1.0 </tspan>
<tspan x="10" y="458">  ├─┬ js-yaml@3.0.1 </tspan>
<tspan x="10" y="474">  │ ├─┬ argparse@0.1.16 </tspan>
<tspan x="10" y="490">  │ │ ├── underscore@1.7.0 </tspan>
<tspan x="10" y="506">  │ │ └── underscore.string@2.4.0 </tspan>
<tspan x="10" y="522">  │ └── esprima@1.0.4 </tspan>
<tspan x="10" y="538">  └─┬ optimist@0.6.1 </tspan>
<tspan x="10" y="554">    ├── minimist@0.0.10 </tspan>
<tspan x="10" y="570">    └── wordwrap@0.0.3</tspan>
</text>
</svg>
